<svg width="75" height="80" viewBox="0 0 75 80" fill="none" xmlns="http://www.w3.org/2000/svg">
<g clip-path="url(#clip0)">
<path d="M75.0001 22.201H70.5381V26.6986H75.0001V22.201Z" fill="#131313"/>
<path d="M75.0001 13.3014H70.5381V17.799H75.0001V13.3014Z" fill="#131313"/>
<path d="M70.6329 17.799H66.1709V22.201H70.6329V17.799Z" fill="#131313"/>
<path d="M70.6329 13.3014H66.1709V17.799H70.6329V13.3014Z" fill="#131313"/>
<path d="M70.6329 0H66.1709V4.49761H70.6329V0Z" fill="#131313"/>
<path d="M66.1708 26.6986H61.8037V31.1005H66.1708V26.6986Z" fill="#131313"/>
<path d="M66.1708 4.4976H61.8037V8.89952H66.1708V4.4976Z" fill="#131313"/>
<path d="M61.8038 22.201H57.3418V26.6986H61.8038V22.201Z" fill="#131313"/>
<path d="M61.8038 13.3014H57.3418V17.799H61.8038V13.3014Z" fill="#131313"/>
<path d="M57.4366 22.201H52.9746V26.6986H57.4366V22.201Z" fill="#131313"/>
<path d="M57.4366 13.3014H52.9746V17.799H57.4366V13.3014Z" fill="#131313"/>
<path d="M57.4366 4.4976H52.9746V8.89952H57.4366V4.4976Z" fill="#131313"/>
<path d="M57.4366 0H52.9746V4.49761H57.4366V0Z" fill="#131313"/>
<path d="M52.8798 53.3971H48.5127V57.799H52.8798V53.3971Z" fill="#131313"/>
<path d="M52.8798 48.8995H48.5127V53.3971H52.8798V48.8995Z" fill="#131313"/>
<path d="M52.8798 44.4976H48.5127V48.9952H52.8798V44.4976Z" fill="#131313"/>
<path d="M52.8798 26.6986H48.5127V31.1005H52.8798V26.6986Z" fill="#131313"/>
<path d="M52.8798 17.799H48.5127V22.201H52.8798V17.799Z" fill="#131313"/>
<path d="M52.8798 8.89952H48.5127V13.3971H52.8798V8.89952Z" fill="#131313"/>
<path d="M48.6075 62.2966H44.1455V66.6986H48.6075V62.2966Z" fill="#131313"/>
<path d="M48.6075 57.799H44.1455V62.2966H48.6075V57.799Z" fill="#131313"/>
<path d="M8.92394 62.2966H4.46191V66.6986H8.92394V62.2966Z" fill="#131313"/>
<path d="M8.92394 57.799H4.46191V62.2966H8.92394V57.799Z" fill="#131313"/>
<path d="M48.6075 53.3971H44.1455V57.799H48.6075V53.3971Z" fill="#131313"/>
<path d="M48.6075 48.8995H44.1455V53.3971H48.6075V48.8995Z" fill="#131313"/>
<path d="M48.6075 44.4976H44.1455V48.9952H48.6075V44.4976Z" fill="#131313"/>
<path d="M48.6075 40H44.1455V44.4019H48.6075V40Z" fill="#131313"/>
<path d="M48.6075 17.799H44.1455V22.201H48.6075V17.799Z" fill="#131313"/>
<path d="M48.6075 4.4976H44.1455V8.89952H48.6075V4.4976Z" fill="#131313"/>
<path d="M44.0507 66.6986H39.6836V71.1962H44.0507V66.6986Z" fill="#131313"/>
<path d="M44.0507 62.2966H39.6836V66.6986H44.0507V62.2966Z" fill="#131313"/>
<path d="M44.0507 57.799H39.6836V62.2966H44.0507V57.799Z" fill="#131313"/>
<path d="M44.0507 53.3971H39.6836V57.799H44.0507V53.3971Z" fill="#131313"/>
<path d="M44.0507 48.8995H39.6836V53.3971H44.0507V48.8995Z" fill="#131313"/>
<path d="M44.0507 44.4976H39.6836V48.9952H44.0507V44.4976Z" fill="#131313"/>
<path d="M44.0507 40H39.6836V44.4019H44.0507V40Z" fill="#131313"/>
<path d="M44.0507 35.5981H39.6836V40.0957H44.0507V35.5981Z" fill="#131313"/>
<path d="M44.0507 13.3014H39.6836V17.799H44.0507V13.3014Z" fill="#131313"/>
<path d="M39.7784 71.1005H35.3164V75.5981H39.7784V71.1005Z" fill="#131313"/>
<path d="M39.7784 66.6986H35.3164V71.1962H39.7784V66.6986Z" fill="#131313"/>
<path d="M39.7784 62.2966H35.3164V66.6986H39.7784V62.2966Z" fill="#131313"/>
<path d="M39.7784 57.799H35.3164V62.2966H39.7784V57.799Z" fill="#131313"/>
<path d="M39.7784 53.3971H35.3164V57.799H39.7784V53.3971Z" fill="#131313"/>
<path d="M39.7784 48.8995H35.3164V53.3971H39.7784V48.8995Z" fill="#131313"/>
<path d="M39.7784 44.4976H35.3164V48.9952H39.7784V44.4976Z" fill="#131313"/>
<path d="M39.7784 40H35.3164V44.4019H39.7784V40Z" fill="#131313"/>
<path d="M39.7784 35.5981H35.3164V40.0957H39.7784V35.5981Z" fill="#131313"/>
<path d="M39.7784 31.1005H35.3164V35.5981H39.7784V31.1005Z" fill="#131313"/>
<path d="M39.7784 13.3014H35.3164V17.799H39.7784V13.3014Z" fill="#131313"/>
<path d="M35.3165 71.1005H30.8545V75.5981H35.3165V71.1005Z" fill="#131313"/>
<path d="M35.3165 66.6986H30.8545V71.1962H35.3165V66.6986Z" fill="#131313"/>
<path d="M35.3165 62.2966H30.8545V66.6986H35.3165V62.2966Z" fill="#131313"/>
<path d="M35.3165 57.799H30.8545V62.2966H35.3165V57.799Z" fill="#131313"/>
<path d="M35.3165 53.3971H30.8545V57.799H35.3165V53.3971Z" fill="#131313"/>
<path d="M35.3165 48.8995H30.8545V53.3971H35.3165V48.8995Z" fill="#131313"/>
<path d="M35.3165 44.4976H30.8545V48.9952H35.3165V44.4976Z" fill="#131313"/>
<path d="M35.3165 40H30.8545V44.4019H35.3165V40Z" fill="#131313"/>
<path d="M35.3165 35.5981H30.8545V40.0957H35.3165V35.5981Z" fill="#131313"/>
<path d="M35.3165 31.1005H30.8545V35.5981H35.3165V31.1005Z" fill="#131313"/>
<path d="M35.3165 26.6986H30.8545V31.1005H35.3165V26.6986Z" fill="#131313"/>
<path d="M35.3165 13.3014H30.8545V17.799H35.3165V13.3014Z" fill="#131313"/>
<path d="M30.8544 71.1005H26.4873V75.5981H30.8544V71.1005Z" fill="#131313"/>
<path d="M30.8544 66.6986H26.4873V71.1962H30.8544V66.6986Z" fill="#131313"/>
<path d="M30.8544 62.2966H26.4873V66.6986H30.8544V62.2966Z" fill="#131313"/>
<path d="M30.8544 57.799H26.4873V62.2966H30.8544V57.799Z" fill="#131313"/>
<path d="M30.8544 53.3971H26.4873V57.799H30.8544V53.3971Z" fill="#131313"/>
<path d="M30.8544 48.8995H26.4873V53.3971H30.8544V48.8995Z" fill="#131313"/>
<path d="M30.8544 44.4976H26.4873V48.9952H30.8544V44.4976Z" fill="#131313"/>
<path d="M30.8544 40H26.4873V44.4019H30.8544V40Z" fill="#131313"/>
<path d="M30.8544 35.5981H26.4873V40.0957H30.8544V35.5981Z" fill="#131313"/>
<path d="M30.8544 31.1005H26.4873V35.5981H30.8544V31.1005Z" fill="#131313"/>
<path d="M30.8544 26.6986H26.4873V31.1005H30.8544V26.6986Z" fill="#131313"/>
<path d="M30.8544 22.201H26.4873V26.6986H30.8544V22.201Z" fill="#131313"/>
<path d="M30.8544 17.799H26.4873V22.201H30.8544V17.799Z" fill="#131313"/>
<path d="M30.8544 13.3014H26.4873V17.799H30.8544V13.3014Z" fill="#131313"/>
<path d="M26.4874 71.1005H22.0254V75.5981H26.4874V71.1005Z" fill="#131313"/>
<path d="M26.4874 66.6986H22.0254V71.1962H26.4874V66.6986Z" fill="#131313"/>
<path d="M26.4874 57.799H22.0254V62.2966H26.4874V57.799Z" fill="#131313"/>
<path d="M26.4874 53.3971H22.0254V57.799H26.4874V53.3971Z" fill="#131313"/>
<path d="M26.4874 48.8995H22.0254V53.3971H26.4874V48.8995Z" fill="#131313"/>
<path d="M26.4874 44.4976H22.0254V48.9952H26.4874V44.4976Z" fill="#131313"/>
<path d="M26.4874 40H22.0254V44.4019H26.4874V40Z" fill="#131313"/>
<path d="M26.4874 35.5981H22.0254V40.0957H26.4874V35.5981Z" fill="#131313"/>
<path d="M26.4874 31.1005H22.0254V35.5981H26.4874V31.1005Z" fill="#131313"/>
<path d="M26.4874 26.6986H22.0254V31.1005H26.4874V26.6986Z" fill="#131313"/>
<path d="M22.1202 71.1005H17.6582V75.5981H22.1202V71.1005Z" fill="#131313"/>
<path d="M35.3165 75.5981H30.8545V80.0957H35.3165V75.5981Z" fill="#131313"/>
<path d="M30.8544 75.5981H26.4873V80.0957H30.8544V75.5981Z" fill="#131313"/>
<path d="M26.4874 75.5981H22.0254V80.0957H26.4874V75.5981Z" fill="#131313"/>
<path d="M22.1202 75.5981H17.6582V80.0957H22.1202V75.5981Z" fill="#131313"/>
<path d="M22.1202 66.6986H17.6582V71.1962H22.1202V66.6986Z" fill="#131313"/>
<path d="M22.1202 62.2966H17.6582V66.6986H22.1202V62.2966Z" fill="#131313"/>
<path d="M22.1202 57.799H17.6582V62.2966H22.1202V57.799Z" fill="#131313"/>
<path d="M22.1202 53.3971H17.6582V57.799H22.1202V53.3971Z" fill="#131313"/>
<path d="M22.1202 48.8995H17.6582V53.3971H22.1202V48.8995Z" fill="#131313"/>
<path d="M22.1202 44.4976H17.6582V48.9952H22.1202V44.4976Z" fill="#131313"/>
<path d="M22.1202 40H17.6582V44.4019H22.1202V40Z" fill="#131313"/>
<path d="M22.1202 35.5981H17.6582V40.0957H22.1202V35.5981Z" fill="#131313"/>
<path d="M22.1202 31.1005H17.6582V35.5981H22.1202V31.1005Z" fill="#131313"/>
<path d="M22.1202 26.6986H17.6582V31.1005H22.1202V26.6986Z" fill="#131313"/>
<path d="M17.5634 71.1005H13.1963V75.5981H17.5634V71.1005Z" fill="#131313"/>
<path d="M17.5634 66.6986H13.1963V71.1962H17.5634V66.6986Z" fill="#131313"/>
<path d="M17.5634 62.2966H13.1963V66.6986H17.5634V62.2966Z" fill="#131313"/>
<path d="M17.5634 40H13.1963V44.4019H17.5634V40Z" fill="#131313"/>
<path d="M17.5634 35.5981H13.1963V40.0957H17.5634V35.5981Z" fill="#131313"/>
<path d="M17.5634 31.1005H13.1963V35.5981H17.5634V31.1005Z" fill="#131313"/>
<path d="M13.2911 66.6986H8.8291V71.1962H13.2911V66.6986Z" fill="#131313"/>
<path d="M13.2911 62.2966H8.8291V66.6986H13.2911V62.2966Z" fill="#131313"/>
<path d="M13.2911 57.799H8.8291V62.2966H13.2911V57.799Z" fill="#131313"/>
<path d="M13.2911 53.3971H8.8291V57.799H13.2911V53.3971Z" fill="#131313"/>
<path d="M13.2911 48.8995H8.8291V53.3971H13.2911V48.8995Z" fill="#131313"/>
<path d="M13.2911 44.4976H8.8291V48.9952H13.2911V44.4976Z" fill="#131313"/>
<path d="M13.2911 40H8.8291V44.4019H13.2911V40Z" fill="#131313"/>
<path d="M13.2911 35.5981H8.8291V40.0957H13.2911V35.5981Z" fill="#131313"/>
<path d="M8.829 53.3971H4.46191V57.799H8.829V53.3971Z" fill="#131313"/>
<path d="M8.829 48.8995H4.46191V53.3971H8.829V48.8995Z" fill="#131313"/>
<path d="M8.829 44.4976H4.46191V48.9952H8.829V44.4976Z" fill="#131313"/>
<path d="M8.829 40H4.46191V44.4976H8.829V40Z" fill="#131313"/>
<path d="M4.46203 57.799H0V62.2966H4.46203V57.799Z" fill="#131313"/>
<path d="M4.36709 53.3971H0V57.799H4.36709V53.3971Z" fill="#131313"/>
<path d="M4.36709 48.8995H0V53.3971H4.36709V48.8995Z" fill="#131313"/>
<path d="M4.36709 44.4976H0V48.9952H4.36709V44.4976Z" fill="#131313"/>
</g>
<defs>
<clipPath id="clip0">
<rect width="75" height="80" fill="white"/>
</clipPath>
</defs>
</svg>
