<svg width="53" height="80" viewBox="0 0 53 80" fill="none" xmlns="http://www.w3.org/2000/svg">
<g clip-path="url(#clip0)">
<path d="M53.1632 21.7612H45.4985V29.1194H53.1632V21.7612Z" fill="#131313"/>
<path d="M53.1632 14.5597H45.4985V21.9178H53.1632V14.5597Z" fill="#131313"/>
<path d="M53.1632 0H45.4985V7.35812H53.1632V0Z" fill="#131313"/>
<path d="M45.3353 72.7984H37.8337V80.1565H45.3353V72.7984Z" fill="#131313"/>
<path d="M45.3353 29.1194H37.8337V36.321H45.3353V29.1194Z" fill="#131313"/>
<path d="M45.3353 14.5597H37.8337V21.9178H45.3353V14.5597Z" fill="#131313"/>
<path d="M45.3353 7.35812H37.8337V14.5597H45.3353V7.35812Z" fill="#131313"/>
<path d="M37.9969 72.7984H30.3323V80.1565H37.9969V72.7984Z" fill="#131313"/>
<path d="M37.9969 36.321H30.3323V43.6791H37.9969V36.321Z" fill="#131313"/>
<path d="M37.9969 21.7612H30.3323V29.1194H37.9969V21.7612Z" fill="#131313"/>
<path d="M37.9969 14.5597H30.3323V21.9178H37.9969V14.5597Z" fill="#131313"/>
<path d="M30.3323 72.7984H22.6677V80.1565H30.3323V72.7984Z" fill="#131313"/>
<path d="M30.3323 65.4403H22.6677V72.6419H30.3323V65.4403Z" fill="#131313"/>
<path d="M30.3323 58.2388H22.6677V65.5969H30.3323V58.2388Z" fill="#131313"/>
<path d="M30.3323 50.8806H22.6677V58.0822H30.3323V50.8806Z" fill="#131313"/>
<path d="M30.3323 43.6791H22.6677V51.0372H30.3323V43.6791Z" fill="#131313"/>
<path d="M30.3323 14.5597H22.6677V21.9178H30.3323V14.5597Z" fill="#131313"/>
<path d="M22.6678 72.7984H15.1663V80.1565H22.6678V72.7984Z" fill="#131313"/>
<path d="M22.6678 36.321H15.1663V43.6791H22.6678V36.321Z" fill="#131313"/>
<path d="M22.6678 14.5597H15.1663V21.9178H22.6678V14.5597Z" fill="#131313"/>
<path d="M15.1661 72.7984H7.50146V80.1565H15.1661V72.7984Z" fill="#131313"/>
<path d="M15.1661 29.1194H7.50146V36.321H15.1661V29.1194Z" fill="#131313"/>
<path d="M15.1661 14.5597H7.50146V21.9178H15.1661V14.5597Z" fill="#131313"/>
<path d="M7.50154 21.7612H0V29.1194H7.50154V21.7612Z" fill="#131313"/>
<path d="M7.50154 14.5597H0V21.9178H7.50154V14.5597Z" fill="#131313"/>
</g>
<defs>
<clipPath id="clip0">
<rect width="53" height="80" fill="white"/>
</clipPath>
</defs>
</svg>
