<svg width="76" height="80" viewBox="0 0 76 80" fill="none" xmlns="http://www.w3.org/2000/svg">
<g clip-path="url(#clip0)">
<path d="M75.5556 17.799H71.0605V22.2966H75.5556V17.799Z" fill="#131313"/>
<path d="M75.5556 13.3014H71.0605V17.799H75.5556V13.3014Z" fill="#131313"/>
<path d="M75.5556 8.89952H71.0605V13.3014H75.5556V8.89952Z" fill="#131313"/>
<path d="M75.5556 4.40192H71.0605V8.89952H75.5556V4.40192Z" fill="#131313"/>
<path d="M71.0606 17.799H66.6611V22.2966H71.0606V17.799Z" fill="#131313"/>
<path d="M71.0606 13.3014H66.6611V17.799H71.0606V13.3014Z" fill="#131313"/>
<path d="M71.0606 8.89952H66.6611V13.3014H71.0606V8.89952Z" fill="#131313"/>
<path d="M71.0606 4.40192H66.6611V8.89952H71.0606V4.40192Z" fill="#131313"/>
<path d="M71.0606 0H66.6611V4.40191H71.0606V0Z" fill="#131313"/>
<path d="M66.7568 26.6986H62.2617V31.1962H66.7568V26.6986Z" fill="#131313"/>
<path d="M66.7568 17.799H62.2617V22.2966H66.7568V17.799Z" fill="#131313"/>
<path d="M66.7568 13.3014H62.2617V17.799H66.7568V13.3014Z" fill="#131313"/>
<path d="M66.7568 8.89952H62.2617V13.3014H66.7568V8.89952Z" fill="#131313"/>
<path d="M66.7568 4.40192H62.2617V8.89952H66.7568V4.40192Z" fill="#131313"/>
<path d="M66.7568 0H62.2617V4.40191H66.7568V0Z" fill="#131313"/>
<path d="M62.166 40H57.7666V44.4976H62.166V40Z" fill="#131313"/>
<path d="M62.166 35.5981H57.7666V40.0957H62.166V35.5981Z" fill="#131313"/>
<path d="M62.166 26.6986H57.7666V31.1962H62.166V26.6986Z" fill="#131313"/>
<path d="M62.166 17.799H57.7666V22.2966H62.166V17.799Z" fill="#131313"/>
<path d="M62.166 13.3014H57.7666V17.799H62.166V13.3014Z" fill="#131313"/>
<path d="M62.166 8.89952H57.7666V13.3014H62.166V8.89952Z" fill="#131313"/>
<path d="M62.166 4.40192H57.7666V8.89952H62.166V4.40192Z" fill="#131313"/>
<path d="M62.166 0H57.7666V4.40191H62.166V0Z" fill="#131313"/>
<path d="M57.8623 35.5981H53.3672V40.0957H57.8623V35.5981Z" fill="#131313"/>
<path d="M57.8623 26.6986H53.3672V31.1962H57.8623V26.6986Z" fill="#131313"/>
<path d="M57.8623 17.799H53.3672V22.2966H57.8623V17.799Z" fill="#131313"/>
<path d="M57.8623 13.3014H53.3672V17.799H57.8623V13.3014Z" fill="#131313"/>
<path d="M57.8623 8.89952H53.3672V13.3014H57.8623V8.89952Z" fill="#131313"/>
<path d="M57.8623 4.40192H53.3672V8.89952H57.8623V4.40192Z" fill="#131313"/>
<path d="M57.8623 0H53.3672V4.40191H57.8623V0Z" fill="#131313"/>
<path d="M53.3671 35.5981H48.8721V40.0957H53.3671V35.5981Z" fill="#131313"/>
<path d="M53.3671 26.6986H48.8721V31.1962H53.3671V26.6986Z" fill="#131313"/>
<path d="M53.3671 22.201H48.8721V26.6029H53.3671V22.201Z" fill="#131313"/>
<path d="M53.3671 17.799H48.8721V22.2966H53.3671V17.799Z" fill="#131313"/>
<path d="M53.3671 13.3014H48.8721V17.799H53.3671V13.3014Z" fill="#131313"/>
<path d="M53.3671 8.89952H48.8721V13.3014H53.3671V8.89952Z" fill="#131313"/>
<path d="M53.3671 4.40192H48.8721V8.89952H53.3671V4.40192Z" fill="#131313"/>
<path d="M53.3671 0H48.8721V4.40191H53.3671V0Z" fill="#131313"/>
<path d="M48.8721 48.8995H44.4727V53.3971H48.8721V48.8995Z" fill="#131313"/>
<path d="M48.8721 44.4976H44.4727V48.8995H48.8721V44.4976Z" fill="#131313"/>
<path d="M48.8721 40H44.4727V44.4976H48.8721V40Z" fill="#131313"/>
<path d="M48.8721 35.5981H44.4727V40.0957H48.8721V35.5981Z" fill="#131313"/>
<path d="M48.8721 31.1005H44.4727V35.5024H48.8721V31.1005Z" fill="#131313"/>
<path d="M48.8721 26.6986H44.4727V31.1962H48.8721V26.6986Z" fill="#131313"/>
<path d="M48.8721 22.201H44.4727V26.6029H48.8721V22.201Z" fill="#131313"/>
<path d="M48.8721 17.799H44.4727V22.2966H48.8721V17.799Z" fill="#131313"/>
<path d="M48.8721 13.3014H44.4727V17.799H48.8721V13.3014Z" fill="#131313"/>
<path d="M48.8721 8.89952H44.4727V13.3014H48.8721V8.89952Z" fill="#131313"/>
<path d="M48.8721 0H44.4727V4.40191H48.8721V0Z" fill="#131313"/>
<path d="M44.4726 75.5981H39.9775V80.0957H44.4726V75.5981Z" fill="#131313"/>
<path d="M44.4726 53.3971H39.9775V57.8947H44.4726V53.3971Z" fill="#131313"/>
<path d="M44.4726 48.8995H39.9775V53.3971H44.4726V48.8995Z" fill="#131313"/>
<path d="M44.4726 44.4976H39.9775V48.8995H44.4726V44.4976Z" fill="#131313"/>
<path d="M44.4726 40H39.9775V44.4976H44.4726V40Z" fill="#131313"/>
<path d="M44.4726 35.5981H39.9775V40.0957H44.4726V35.5981Z" fill="#131313"/>
<path d="M44.4726 31.1005H39.9775V35.5024H44.4726V31.1005Z" fill="#131313"/>
<path d="M44.4726 26.6986H39.9775V31.1962H44.4726V26.6986Z" fill="#131313"/>
<path d="M44.4726 22.201H39.9775V26.6029H44.4726V22.201Z" fill="#131313"/>
<path d="M44.4726 17.799H39.9775V22.2966H44.4726V17.799Z" fill="#131313"/>
<path d="M44.4726 13.3014H39.9775V17.799H44.4726V13.3014Z" fill="#131313"/>
<path d="M44.4726 8.89952H39.9775V13.3014H44.4726V8.89952Z" fill="#131313"/>
<path d="M44.4726 4.40192H39.9775V8.89952H44.4726V4.40192Z" fill="#131313"/>
<path d="M44.4726 0H39.9775V4.40191H44.4726V0Z" fill="#131313"/>
<path d="M40.0732 75.5981H35.5781V80.0957H40.0732V75.5981Z" fill="#131313"/>
<path d="M40.0732 71.1005H35.5781V75.5981H40.0732V71.1005Z" fill="#131313"/>
<path d="M40.0732 66.6986H35.5781V71.1005H40.0732V66.6986Z" fill="#131313"/>
<path d="M40.0732 62.2009H35.5781V66.6986H40.0732V62.2009Z" fill="#131313"/>
<path d="M40.0732 57.7991H35.5781V62.201H40.0732V57.7991Z" fill="#131313"/>
<path d="M40.0732 53.3971H35.5781V57.8947H40.0732V53.3971Z" fill="#131313"/>
<path d="M40.0732 48.8995H35.5781V53.3971H40.0732V48.8995Z" fill="#131313"/>
<path d="M40.0732 44.4976H35.5781V48.8995H40.0732V44.4976Z" fill="#131313"/>
<path d="M40.0732 40H35.5781V44.4976H40.0732V40Z" fill="#131313"/>
<path d="M40.0732 35.5981H35.5781V40.0957H40.0732V35.5981Z" fill="#131313"/>
<path d="M40.0732 31.1005H35.5781V35.5024H40.0732V31.1005Z" fill="#131313"/>
<path d="M40.0732 26.6986H35.5781V31.1962H40.0732V26.6986Z" fill="#131313"/>
<path d="M40.0732 22.201H35.5781V26.6029H40.0732V22.201Z" fill="#131313"/>
<path d="M40.0732 17.799H35.5781V22.2966H40.0732V17.799Z" fill="#131313"/>
<path d="M40.0732 13.3014H35.5781V17.799H40.0732V13.3014Z" fill="#131313"/>
<path d="M40.0732 8.89952H35.5781V13.3014H40.0732V8.89952Z" fill="#131313"/>
<path d="M40.0732 4.40192H35.5781V8.89952H40.0732V4.40192Z" fill="#131313"/>
<path d="M35.4824 62.2009H31.083V66.6986H35.4824V62.2009Z" fill="#131313"/>
<path d="M35.4824 57.7991H31.083V62.201H35.4824V57.7991Z" fill="#131313"/>
<path d="M35.4824 53.3971H31.083V57.8947H35.4824V53.3971Z" fill="#131313"/>
<path d="M35.4824 48.8995H31.083V53.3971H35.4824V48.8995Z" fill="#131313"/>
<path d="M35.4824 44.4976H31.083V48.8995H35.4824V44.4976Z" fill="#131313"/>
<path d="M35.4824 40H31.083V44.4976H35.4824V40Z" fill="#131313"/>
<path d="M35.4824 35.5981H31.083V40.0957H35.4824V35.5981Z" fill="#131313"/>
<path d="M35.4824 31.1005H31.083V35.5024H35.4824V31.1005Z" fill="#131313"/>
<path d="M35.4824 26.6986H31.083V31.1962H35.4824V26.6986Z" fill="#131313"/>
<path d="M31.1787 62.2009H26.6836V66.6986H31.1787V62.2009Z" fill="#131313"/>
<path d="M31.1787 57.7991H26.6836V62.201H31.1787V57.7991Z" fill="#131313"/>
<path d="M31.1787 53.3971H26.6836V57.8947H31.1787V53.3971Z" fill="#131313"/>
<path d="M31.1787 48.8995H26.6836V53.3971H31.1787V48.8995Z" fill="#131313"/>
<path d="M31.1787 44.4976H26.6836V48.8995H31.1787V44.4976Z" fill="#131313"/>
<path d="M31.1787 40H26.6836V44.4976H31.1787V40Z" fill="#131313"/>
<path d="M31.1787 35.5981H26.6836V40.0957H31.1787V35.5981Z" fill="#131313"/>
<path d="M31.1787 31.1005H26.6836V35.5024H31.1787V31.1005Z" fill="#131313"/>
<path d="M26.5879 75.5981H22.1885V80.0957H26.5879V75.5981Z" fill="#131313"/>
<path d="M26.5879 66.6986H22.1885V71.1005H26.5879V66.6986Z" fill="#131313"/>
<path d="M26.5879 62.2009H22.1885V66.6986H26.5879V62.2009Z" fill="#131313"/>
<path d="M26.5879 57.7991H22.1885V62.201H26.5879V57.7991Z" fill="#131313"/>
<path d="M26.5879 53.3971H22.1885V57.8947H26.5879V53.3971Z" fill="#131313"/>
<path d="M26.5879 48.8995H22.1885V53.3971H26.5879V48.8995Z" fill="#131313"/>
<path d="M26.5879 44.4976H22.1885V48.8995H26.5879V44.4976Z" fill="#131313"/>
<path d="M26.5879 40H22.1885V44.4976H26.5879V40Z" fill="#131313"/>
<path d="M26.5879 35.5981H22.1885V40.0957H26.5879V35.5981Z" fill="#131313"/>
<path d="M22.2841 75.5981H17.7891V80.0957H22.2841V75.5981Z" fill="#131313"/>
<path d="M22.2841 71.1005H17.7891V75.5981H22.2841V71.1005Z" fill="#131313"/>
<path d="M22.2841 66.6986H17.7891V71.1005H22.2841V66.6986Z" fill="#131313"/>
<path d="M22.2841 62.2009H17.7891V66.6986H22.2841V62.2009Z" fill="#131313"/>
<path d="M22.2841 57.7991H17.7891V62.201H22.2841V57.7991Z" fill="#131313"/>
<path d="M22.2841 53.3971H17.7891V57.8947H22.2841V53.3971Z" fill="#131313"/>
<path d="M22.2841 48.8995H17.7891V53.3971H22.2841V48.8995Z" fill="#131313"/>
<path d="M22.2841 44.4976H17.7891V48.8995H22.2841V44.4976Z" fill="#131313"/>
<path d="M22.2841 40H17.7891V44.4976H22.2841V40Z" fill="#131313"/>
<path d="M17.789 62.2009H13.2939V66.6986H17.789V62.2009Z" fill="#131313"/>
<path d="M17.789 57.7991H13.2939V62.201H17.789V57.7991Z" fill="#131313"/>
<path d="M17.789 53.3971H13.2939V57.8947H17.789V53.3971Z" fill="#131313"/>
<path d="M17.789 48.8995H13.2939V53.3971H17.789V48.8995Z" fill="#131313"/>
<path d="M17.789 44.4976H13.2939V48.8995H17.789V44.4976Z" fill="#131313"/>
<path d="M13.294 57.7991H8.89453V62.201H13.294V57.7991Z" fill="#131313"/>
<path d="M13.294 53.3971H8.89453V57.8947H13.294V53.3971Z" fill="#131313"/>
<path d="M13.294 48.8995H8.89453V53.3971H13.294V48.8995Z" fill="#131313"/>
<path d="M13.294 44.4976H8.89453V48.8995H13.294V44.4976Z" fill="#131313"/>
<path d="M13.294 40H8.89453V44.4976H13.294V40Z" fill="#131313"/>
<path d="M8.99019 53.3971H4.49512V57.8947H8.99019V53.3971Z" fill="#131313"/>
<path d="M8.99019 48.8995H4.49512V53.3971H8.99019V48.8995Z" fill="#131313"/>
<path d="M8.99019 44.4976H4.49512V48.8995H8.99019V44.4976Z" fill="#131313"/>
<path d="M8.99019 40H4.49512V44.4976H8.99019V40Z" fill="#131313"/>
<path d="M8.99019 35.5981H4.49512V40.0957H8.99019V35.5981Z" fill="#131313"/>
<path d="M4.49508 48.8995H0V53.3971H4.49508V48.8995Z" fill="#131313"/>
<path d="M4.49508 44.4976H0V48.8995H4.49508V44.4976Z" fill="#131313"/>
<path d="M4.49508 40H0V44.4976H4.49508V40Z" fill="#131313"/>
<path d="M4.49508 35.5981H0V40.0957H4.49508V35.5981Z" fill="#131313"/>
<path d="M4.49508 31.1005H0V35.5024H4.49508V31.1005Z" fill="#131313"/>
<path d="M4.49508 26.6986H0V31.1962H4.49508V26.6986Z" fill="#131313"/>
</g>
<defs>
<clipPath id="clip0">
<rect width="75.5556" height="80" fill="white"/>
</clipPath>
</defs>
</svg>
