<svg width="60" height="80" viewBox="0 0 60 80" fill="none" xmlns="http://www.w3.org/2000/svg">
<g clip-path="url(#clip0)">
<path d="M59.902 24.6358H53.1826V30.8609H59.902V24.6358Z" fill="#131313"/>
<path d="M53.1827 49.2715H46.4634V55.4967H53.1827V49.2715Z" fill="#131313"/>
<path d="M53.1827 43.0464H46.4634V49.2715H53.1827V43.0464Z" fill="#131313"/>
<path d="M53.1827 24.6358H46.4634V30.8609H53.1827V24.6358Z" fill="#131313"/>
<path d="M46.4636 73.9073H39.8872V80.1324H46.4636V73.9073Z" fill="#131313"/>
<path d="M46.4636 49.2715H39.8872V55.4967H46.4636V49.2715Z" fill="#131313"/>
<path d="M46.4636 43.0464H39.8872V49.2715H46.4636V43.0464Z" fill="#131313"/>
<path d="M46.4636 36.9536H39.8872V43.0464H46.4636V36.9536Z" fill="#131313"/>
<path d="M46.4636 24.6358H39.8872V30.8609H46.4636V24.6358Z" fill="#131313"/>
<path d="M46.4636 0H39.8872V6.22517H46.4636V0Z" fill="#131313"/>
<path d="M39.8868 73.9073H33.1675V80.1324H39.8868V73.9073Z" fill="#131313"/>
<path d="M39.8868 67.6821H33.1675V73.7748H39.8868V67.6821Z" fill="#131313"/>
<path d="M39.8868 61.5894H33.1675V67.8146H39.8868V61.5894Z" fill="#131313"/>
<path d="M39.8868 55.3642H33.1675V61.4569H39.8868V55.3642Z" fill="#131313"/>
<path d="M39.8868 49.2715H33.1675V55.4967H39.8868V49.2715Z" fill="#131313"/>
<path d="M39.8868 43.0464H33.1675V49.2715H39.8868V43.0464Z" fill="#131313"/>
<path d="M39.8868 36.9536H33.1675V43.0464H39.8868V36.9536Z" fill="#131313"/>
<path d="M39.8868 30.7285H33.1675V36.9536H39.8868V30.7285Z" fill="#131313"/>
<path d="M39.8868 24.6358H33.1675V30.8609H39.8868V24.6358Z" fill="#131313"/>
<path d="M39.8868 12.3179H33.1675V18.5431H39.8868V12.3179Z" fill="#131313"/>
<path d="M39.8868 6.22516H33.1675V12.3179H39.8868V6.22516Z" fill="#131313"/>
<path d="M33.3106 49.2715H26.5913V55.4967H33.3106V49.2715Z" fill="#131313"/>
<path d="M33.3106 43.0464H26.5913V49.2715H33.3106V43.0464Z" fill="#131313"/>
<path d="M33.3106 36.9536H26.5913V43.0464H33.3106V36.9536Z" fill="#131313"/>
<path d="M33.3106 30.7285H26.5913V36.9536H33.3106V30.7285Z" fill="#131313"/>
<path d="M33.3106 24.6358H26.5913V30.8609H33.3106V24.6358Z" fill="#131313"/>
<path d="M33.3106 18.4106H26.5913V24.5033H33.3106V18.4106Z" fill="#131313"/>
<path d="M33.3106 12.3179H26.5913V18.5431H33.3106V12.3179Z" fill="#131313"/>
<path d="M33.3106 6.22516H26.5913V12.3179H33.3106V6.22516Z" fill="#131313"/>
<path d="M26.4484 73.9073H19.8721V80.1324H26.4484V73.9073Z" fill="#131313"/>
<path d="M26.4484 67.6821H19.8721V73.7748H26.4484V67.6821Z" fill="#131313"/>
<path d="M26.4484 61.5894H19.8721V67.8146H26.4484V61.5894Z" fill="#131313"/>
<path d="M26.4484 55.3642H19.8721V61.4569H26.4484V55.3642Z" fill="#131313"/>
<path d="M26.4484 49.2715H19.8721V55.4967H26.4484V49.2715Z" fill="#131313"/>
<path d="M26.4484 43.0464H19.8721V49.2715H26.4484V43.0464Z" fill="#131313"/>
<path d="M26.4484 36.9536H19.8721V43.0464H26.4484V36.9536Z" fill="#131313"/>
<path d="M26.4484 30.7285H19.8721V36.9536H26.4484V30.7285Z" fill="#131313"/>
<path d="M26.4484 24.6358H19.8721V30.8609H26.4484V24.6358Z" fill="#131313"/>
<path d="M26.4484 12.3179H19.8721V18.5431H26.4484V12.3179Z" fill="#131313"/>
<path d="M26.4484 6.22516H19.8721V12.3179H26.4484V6.22516Z" fill="#131313"/>
<path d="M20.0152 73.9073H13.2959V80.1324H20.0152V73.9073Z" fill="#131313"/>
<path d="M20.0152 49.2715H13.2959V55.4967H20.0152V49.2715Z" fill="#131313"/>
<path d="M20.0152 43.0464H13.2959V49.2715H20.0152V43.0464Z" fill="#131313"/>
<path d="M20.0152 36.9536H13.2959V43.0464H20.0152V36.9536Z" fill="#131313"/>
<path d="M20.0152 24.6358H13.2959V30.8609H20.0152V24.6358Z" fill="#131313"/>
<path d="M20.0152 0H13.2959V6.22517H20.0152V0Z" fill="#131313"/>
<path d="M13.2956 49.2715H6.71924V55.4967H13.2956V49.2715Z" fill="#131313"/>
<path d="M13.2956 43.0464H6.71924V49.2715H13.2956V43.0464Z" fill="#131313"/>
<path d="M13.2956 24.6358H6.71924V30.8609H13.2956V24.6358Z" fill="#131313"/>
<path d="M6.71932 24.6358H0V30.8609H6.71932V24.6358Z" fill="#131313"/>
</g>
<defs>
<clipPath id="clip0">
<rect width="59.759" height="80" fill="white"/>
</clipPath>
</defs>
</svg>
