<svg width="80" height="80" viewBox="0 0 80 80" fill="none" xmlns="http://www.w3.org/2000/svg">
<g clip-path="url(#clip0)">
<path d="M80.1565 32H72.7984V40.086H80.1565V32Z" fill="#131313"/>
<path d="M72.7984 39.914H65.4403V48H72.7984V39.914Z" fill="#131313"/>
<path d="M72.7984 32H65.4403V40.086H72.7984V32Z" fill="#131313"/>
<path d="M65.4403 48H58.2387V55.914H65.4403V48Z" fill="#131313"/>
<path d="M65.4403 39.914H58.2387V48H65.4403V39.914Z" fill="#131313"/>
<path d="M58.0822 39.914H50.8806V48H58.0822V39.914Z" fill="#131313"/>
<path d="M50.8806 39.914H43.679V48H50.8806V39.914Z" fill="#131313"/>
<path d="M43.5225 39.914H36.321V48H43.5225V39.914Z" fill="#131313"/>
<path d="M36.321 39.914H29.1194V48H36.321V39.914Z" fill="#131313"/>
<path d="M65.4403 32H58.2387V40.086H65.4403V32Z" fill="#131313"/>
<path d="M58.2387 55.914H50.8806V64H58.2387V55.914Z" fill="#131313"/>
<path d="M58.2387 48H50.8806V55.914H58.2387V48Z" fill="#131313"/>
<path d="M58.2387 32H50.8806V40.086H58.2387V32Z" fill="#131313"/>
<path d="M51.0372 55.914H43.679V64H51.0372V55.914Z" fill="#131313"/>
<path d="M51.0372 48H43.679V55.914H51.0372V48Z" fill="#131313"/>
<path d="M51.0372 32H43.679V40.086H51.0372V32Z" fill="#131313"/>
<path d="M43.5225 55.914H36.321V64H43.5225V55.914Z" fill="#131313"/>
<path d="M43.5225 48H36.321V55.914H43.5225V48Z" fill="#131313"/>
<path d="M43.5225 32H36.321V40.086H43.5225V32Z" fill="#131313"/>
<path d="M43.5225 23.914H36.321V31.828H43.5225V23.914Z" fill="#131313"/>
<path d="M36.4775 71.914H29.1194V80H36.4775V71.914Z" fill="#131313"/>
<path d="M36.4775 64H29.1194V71.914H36.4775V64Z" fill="#131313"/>
<path d="M36.4775 55.914H29.1194V64H36.4775V55.914Z" fill="#131313"/>
<path d="M36.4775 48H29.1194V55.914H36.4775V48Z" fill="#131313"/>
<path d="M36.4775 32H29.1194V40.086H36.4775V32Z" fill="#131313"/>
<path d="M36.4775 23.914H29.1194V31.828H36.4775V23.914Z" fill="#131313"/>
<path d="M28.9628 55.914H21.7613V64H28.9628V55.914Z" fill="#131313"/>
<path d="M28.9628 48H21.7613V55.914H28.9628V48Z" fill="#131313"/>
<path d="M28.9628 39.914H21.7613V48H28.9628V39.914Z" fill="#131313"/>
<path d="M28.9628 32H21.7613V40.086H28.9628V32Z" fill="#131313"/>
<path d="M28.9628 23.914H21.7613V31.828H28.9628V23.914Z" fill="#131313"/>
<path d="M28.9628 16H21.7613V24.086H28.9628V16Z" fill="#131313"/>
<path d="M28.9628 7.91399H21.7613V16H28.9628V7.91399Z" fill="#131313"/>
<path d="M28.9628 0H21.7613V7.91398H28.9628V0Z" fill="#131313"/>
<path d="M21.9178 71.914H14.5597V80H21.9178V71.914Z" fill="#131313"/>
<path d="M21.9178 64H14.5597V71.914H21.9178V64Z" fill="#131313"/>
<path d="M21.9178 55.914H14.5597V64H21.9178V55.914Z" fill="#131313"/>
<path d="M21.9178 48H14.5597V55.914H21.9178V48Z" fill="#131313"/>
<path d="M21.9178 39.914H14.5597V48H21.9178V39.914Z" fill="#131313"/>
<path d="M21.9178 32H14.5597V40.086H21.9178V32Z" fill="#131313"/>
<path d="M21.9178 23.914H14.5597V31.828H21.9178V23.914Z" fill="#131313"/>
<path d="M21.9178 16H14.5597V24.086H21.9178V16Z" fill="#131313"/>
<path d="M21.9178 0H14.5597V7.91398H21.9178V0Z" fill="#131313"/>
<path d="M14.5597 55.914H7.20157V64H14.5597V55.914Z" fill="#131313"/>
<path d="M14.5597 48H7.20157V55.914H14.5597V48Z" fill="#131313"/>
<path d="M14.5597 39.914H7.20157V48H14.5597V39.914Z" fill="#131313"/>
<path d="M14.5597 32H7.20157V40.086H14.5597V32Z" fill="#131313"/>
<path d="M14.5597 23.914H7.20157V31.828H14.5597V23.914Z" fill="#131313"/>
<path d="M14.5597 16H7.20157V24.086H14.5597V16Z" fill="#131313"/>
<path d="M14.5597 7.91399H7.20157V16H14.5597V7.91399Z" fill="#131313"/>
<path d="M14.5597 0H7.20157V7.91398H14.5597V0Z" fill="#131313"/>
<path d="M7.20157 7.91399H0V16H7.20157V7.91399Z" fill="#131313"/>
</g>
<defs>
<clipPath id="clip0">
<rect width="80" height="80" fill="white"/>
</clipPath>
</defs>
</svg>
