<svg width="80" height="80" viewBox="0 0 80 80" fill="none" xmlns="http://www.w3.org/2000/svg">
<path d="M79.8566 73.2617H73.2616V80H79.8566V73.2617Z" fill="#131313"/>
<path d="M79.8566 66.6667H73.2616V73.405H79.8566V66.6667Z" fill="#131313"/>
<path d="M73.405 73.2617H66.6666V80H73.405V73.2617Z" fill="#131313"/>
<path d="M73.405 66.6667H66.6666V73.405H73.405V66.6667Z" fill="#131313"/>
<path d="M73.405 59.9283H66.6666V66.5233H73.405V59.9283Z" fill="#131313"/>
<path d="M73.405 33.2617H66.6666V40H73.405V33.2617Z" fill="#131313"/>
<path d="M66.5233 66.6667H59.9283V73.405H66.5233V66.6667Z" fill="#131313"/>
<path d="M66.5233 59.9283H59.9283V66.5233H66.5233V59.9283Z" fill="#131313"/>
<path d="M66.5233 53.3333H59.9283V60.0717H66.5233V53.3333Z" fill="#131313"/>
<path d="M66.5233 40H59.9283V46.7383H66.5233V40Z" fill="#131313"/>
<path d="M66.5233 33.2617H59.9283V40H66.5233V33.2617Z" fill="#131313"/>
<path d="M66.5233 26.6667H59.9283V33.2617H66.5233V26.6667Z" fill="#131313"/>
<path d="M60.0717 59.9283H53.3334V66.5233H60.0717V59.9283Z" fill="#131313"/>
<path d="M60.0717 53.3333H53.3334V60.0717H60.0717V53.3333Z" fill="#131313"/>
<path d="M60.0717 46.595H53.3334V53.19H60.0717V46.595Z" fill="#131313"/>
<path d="M60.0717 40H53.3334V46.7383H60.0717V40Z" fill="#131313"/>
<path d="M60.0717 33.2617H53.3334V40H60.0717V33.2617Z" fill="#131313"/>
<path d="M53.3333 53.3333H46.595V60.0717H53.3333V53.3333Z" fill="#131313"/>
<path d="M53.3333 46.595H46.595V53.19H53.3333V46.595Z" fill="#131313"/>
<path d="M53.3333 40H46.595V46.7383H53.3333V40Z" fill="#131313"/>
<path d="M46.595 59.9283H40V66.5233H46.595V59.9283Z" fill="#131313"/>
<path d="M46.595 53.3333H40V60.0717H46.595V53.3333Z" fill="#131313"/>
<path d="M46.595 46.595H40V53.19H46.595V46.595Z" fill="#131313"/>
<path d="M46.595 40H40V46.7383H46.595V40Z" fill="#131313"/>
<path d="M46.595 33.2617H40V40H46.595V33.2617Z" fill="#131313"/>
<path d="M39.9999 66.6667H33.2616V73.405H39.9999V66.6667Z" fill="#131313"/>
<path d="M39.9999 59.9283H33.2616V66.5233H39.9999V59.9283Z" fill="#131313"/>
<path d="M39.9999 53.3333H33.2616V60.0717H39.9999V53.3333Z" fill="#131313"/>
<path d="M39.9999 40H33.2616V46.7383H39.9999V40Z" fill="#131313"/>
<path d="M39.9999 33.2617H33.2616V40H39.9999V33.2617Z" fill="#131313"/>
<path d="M39.9999 26.6667H33.2616V33.2617H39.9999V26.6667Z" fill="#131313"/>
<path d="M33.405 59.9283H26.6666V66.5233H33.405V59.9283Z" fill="#131313"/>
<path d="M33.405 33.2617H26.6666V40H33.405V33.2617Z" fill="#131313"/>
<path d="M33.405 26.6667H26.6666V33.2617H33.405V26.6667Z" fill="#131313"/>
<path d="M33.405 19.9283H26.6666V26.6667H33.405V19.9283Z" fill="#131313"/>
<path d="M26.5233 26.6667H19.9283V33.2617H26.5233V26.6667Z" fill="#131313"/>
<path d="M26.5233 19.9283H19.9283V26.6667H26.5233V19.9283Z" fill="#131313"/>
<path d="M26.5233 13.3333H19.9283V20.0717H26.5233V13.3333Z" fill="#131313"/>
<path d="M20.0717 19.9283H13.3334V26.6667H20.0717V19.9283Z" fill="#131313"/>
<path d="M20.0717 13.3333H13.3334V20.0717H20.0717V13.3333Z" fill="#131313"/>
<path d="M20.0717 6.73836H13.3334V13.3333H20.0717V6.73836Z" fill="#131313"/>
<path d="M13.3334 13.3333H6.7384V20.0717H13.3334V13.3333Z" fill="#131313"/>
<path d="M13.3334 6.73836H6.7384V13.3333H13.3334V6.73836Z" fill="#131313"/>
<path d="M13.3334 0H6.7384V6.73835H13.3334V0Z" fill="#131313"/>
<path d="M6.73835 6.73836H0V13.3333H6.73835V6.73836Z" fill="#131313"/>
<path d="M6.73835 0H0V6.73835H6.73835V0Z" fill="#131313"/>
</svg>
